<?xml version="1.0" standalone="no"?>
<!DOCTYPE svg PUBLIC "-//W3C//DTD SVG 1.1//EN" "http://www.w3.org/Graphics/SVG/1.1/DTD/svg11.dtd" >
<svg xmlns="http://www.w3.org/2000/svg">
<metadata>Generated by IcoMoon</metadata>
<defs>
<font id="icomoon" horiz-adv-x="1024">
<font-face units-per-em="1024" ascent="960" descent="-64" />
<missing-glyph horiz-adv-x="1024" />
<glyph unicode="&#x20;" d="" horiz-adv-x="512" />
<glyph unicode="&#x2b;" d="M932.864 563.712v-228.352h-343.040v-344.064h-228.352v344.064h-343.040v228.352h343.040v343.040h228.352v-343.040h343.040z" horiz-adv-x="950" />
<glyph unicode="&#x54;" d="M0 52.736q30.72-3.072 61.44-3.072 180.224 0 321.536 110.592-83.968 1.024-150.528 51.2t-91.136 128q20.48-4.096 48.128-4.096 35.84 0 68.608 9.216-90.112 17.408-148.48 89.088t-59.392 163.84v3.072q54.272-30.72 117.76-31.744-53.248 34.816-83.968 92.16t-31.744 122.88q0 69.632 35.84 130.048 96.256-119.808 235.52-190.464t296.96-79.872q-7.168 33.792-7.168 59.392 0 106.496 75.776 182.272t183.296 75.776q111.616 0 188.416-81.92 89.088 18.432 163.84 63.488-28.672-93.184-112.64-143.36 74.752 9.216 147.456 40.96-49.152-76.8-128-134.144v-33.792q0-103.424-29.696-206.848t-92.16-198.656-148.48-168.96-205.824-117.76-259.072-43.008q-214.016 0-396.288 115.712z" horiz-adv-x="1260" />
<glyph unicode="&#x66;" d="M0 411.136v195.584h157.696v98.304q0 106.496 69.632 181.248t166.912 74.752h156.672v-195.584h-156.672q-15.36 0-27.648-16.384t-12.288-41.984v-100.352h196.608v-195.584h-196.608v-474.112h-196.608v474.112h-157.696z" horiz-adv-x="551" />
<glyph unicode="&#x2302;" d="M804.864 393.728v-273.408q0-15.36-11.264-26.624t-25.6-10.24h-219.136v219.136h-146.432v-219.136h-219.136q-15.36 0-25.6 10.24t-11.264 26.624v273.408q0 1.024 0 2.048t0 2.048l328.704 270.336 328.704-270.336q1.024-1.024 1.024-4.096zM931.84 433.664l-34.816-41.984q-5.12-5.12-12.288-6.144h-2.048q-7.168 0-12.288 3.072l-395.264 329.728-395.264-329.728q-7.168-4.096-13.312-4.096-7.168 2.048-12.288 7.168l-35.84 41.984q-4.096 5.12-3.072 13.312t6.144 12.288l410.624 342.016q18.432 15.36 43.008 15.36t44.032-15.36l139.264-116.736v111.616q0 8.192 5.12 13.312t13.312 5.12h109.568q8.192 0 13.312-5.12t5.12-13.312v-232.448l124.928-104.448q5.12-5.12 6.144-12.288t-4.096-13.312z" horiz-adv-x="950" />
<glyph unicode="&#x25b4;" d="M0 244.224l235.52 409.6 235.52-409.6h-471.040z" horiz-adv-x="471" />
<glyph unicode="&#x25be;" d="M471.040 653.824l-235.52-409.6-235.52 409.6h471.040z" horiz-adv-x="471" />
<glyph unicode="&#x2630;" d="M292.864 248.32v-110.592q0-22.528-16.384-37.888t-38.912-16.384h-182.272q-23.552 0-38.912 16.384t-16.384 37.888v110.592q0 22.528 16.384 38.912t38.912 15.36h182.272q22.528 0 38.912-15.36t16.384-38.912zM292.864 540.16v-109.568q0-22.528-16.384-38.912t-38.912-15.36h-182.272q-23.552 0-38.912 15.36t-16.384 38.912v109.568q0 23.552 16.384 38.912t38.912 16.384h182.272q22.528 0 38.912-16.384t16.384-38.912zM1024 248.32v-110.592q0-22.528-16.384-37.888t-38.912-16.384h-547.84q-23.552 0-38.912 16.384t-16.384 37.888v110.592q0 22.528 16.384 38.912t38.912 15.36h547.84q23.552 0 38.912-15.36t16.384-38.912zM292.864 833.024v-109.568q0-22.528-16.384-38.912t-38.912-16.384h-182.272q-23.552 0-38.912 16.384t-16.384 38.912v109.568q0 22.528 16.384 38.912t38.912 16.384h182.272q22.528 0 38.912-16.384t16.384-38.912zM1024 540.16v-109.568q0-22.528-16.384-38.912t-38.912-15.36h-547.84q-23.552 0-38.912 15.36t-16.384 38.912v109.568q0 23.552 16.384 38.912t38.912 16.384h547.84q23.552 0 38.912-16.384t16.384-38.912zM1024 833.024v-109.568q0-22.528-16.384-38.912t-38.912-16.384h-547.84q-23.552 0-38.912 16.384t-16.384 38.912v109.568q0 22.528 16.384 38.912t38.912 16.384h547.84q23.552 0 38.912-16.384t16.384-38.912z" />
<glyph unicode="&#x26a1;" d="M40.96-11.776q-4.096 4.096 35.84 96.256t80.896 186.368 38.912 100.352-96.256 46.080-100.352 56.32q-4.096 12.288 86.016 122.88t184.32 214.016 98.304 99.328q6.144-4.096-75.776-190.464t-79.872-190.464 97.28-44.032 99.328-58.368q4.096-20.48-178.176-232.448t-190.464-205.824z" horiz-adv-x="410" />
<glyph unicode="&#x26ef;" d="M512 449.024q0 60.416-43.008 103.424t-103.424 43.008-103.424-43.008-43.008-103.424 43.008-103.424 103.424-43.008 103.424 43.008 43.008 103.424zM951.296 156.16q0 29.696-22.528 52.224t-51.2 21.504-51.2-21.504-21.504-52.224q0-29.696 21.504-51.2t51.2-21.504 52.224 21.504 21.504 51.2zM951.296 741.888q0 29.696-22.528 51.2t-51.2 21.504-51.2-21.504-21.504-51.2q0-30.72 21.504-52.224t51.2-21.504 52.224 21.504 21.504 52.224zM731.136 501.248v-105.472q0-6.144-4.096-11.264t-9.216-6.144l-88.064-14.336q-6.144-19.456-18.432-43.008 19.456-27.648 51.2-65.536 4.096-6.144 4.096-11.264 0-7.168-4.096-11.264-13.312-17.408-47.104-51.2t-45.056-33.792q-6.144 0-11.264 4.096l-65.536 51.2q-21.504-11.264-44.032-17.408-6.144-61.44-13.312-89.088-4.096-13.312-17.408-13.312h-106.496q-6.144 0-11.264 4.096t-5.12 10.24l-13.312 87.040q-19.456 6.144-43.008 18.432l-67.584-51.2q-4.096-4.096-11.264-4.096-6.144 0-12.288 4.096-81.92 76.8-81.92 92.16 0 5.12 4.096 10.24 5.12 8.192 23.552 30.72t26.624 34.816q-13.312 24.576-20.48 47.104l-87.040 13.312q-5.12 1.024-9.216 5.12t-4.096 11.264v105.472q0 6.144 4.096 11.264t9.216 6.144l88.064 14.336q7.168 19.456 18.432 43.008-19.456 27.648-51.2 65.536-4.096 6.144-4.096 11.264 0 7.168 4.096 11.264 12.288 17.408 47.104 51.2t45.056 33.792q6.144 0 12.288-4.096l65.536-51.2q19.456 10.24 44.032 18.432 6.144 61.44 13.312 88.064 3.072 13.312 16.384 13.312h106.496q6.144 0 11.264-4.096t6.144-10.24l13.312-87.040q19.456-6.144 41.984-17.408l67.584 50.176q5.12 4.096 11.264 4.096 7.168 0 12.288-4.096 82.944-76.8 82.944-92.16 0-5.12-4.096-10.24-7.168-9.216-24.576-30.72t-25.6-34.816q13.312-27.648 19.456-47.104l87.040-12.288q5.12-2.048 9.216-6.144t4.096-11.264zM1096.704 196.096v-79.872q0-9.216-84.992-17.408-6.144-15.36-16.384-29.696 28.672-64.512 28.672-78.848 0-2.048-2.048-4.096-69.632-40.96-70.656-40.96-5.12 0-26.624 27.648t-29.696 37.888q-11.264-1.024-17.408-1.024t-17.408 1.024q-7.168-11.264-29.696-37.888t-25.6-27.648q-1.024 0-70.656 40.96-3.072 2.048-3.072 4.096 0 14.336 29.696 78.848-10.24 14.336-17.408 29.696-84.992 8.192-84.992 17.408v79.872q0 9.216 84.992 18.432 7.168 16.384 17.408 29.696-29.696 64.512-29.696 78.848 0 2.048 3.072 4.096 2.048 1.024 19.456 11.264t33.792 19.456 17.408 9.216q4.096 0 25.6-26.624t29.696-38.912q12.288 1.024 17.408 1.024t17.408-1.024q28.672 40.96 52.224 64.512l4.096 1.024q2.048 0 70.656-39.936 2.048-2.048 2.048-4.096 0-14.336-28.672-78.848 9.216-13.312 16.384-29.696 84.992-9.216 84.992-18.432zM1096.704 781.824v-79.872q0-9.216-84.992-18.432-6.144-15.36-16.384-29.696 28.672-64.512 28.672-78.848 0-2.048-2.048-4.096-69.632-39.936-70.656-39.936-5.12 0-26.624 26.624t-29.696 38.912q-11.264-1.024-17.408-1.024t-17.408 1.024q-7.168-12.288-29.696-38.912t-25.6-26.624q-1.024 0-70.656 39.936-3.072 2.048-3.072 4.096 0 14.336 29.696 78.848-10.24 14.336-17.408 29.696-84.992 9.216-84.992 18.432v79.872q0 9.216 84.992 17.408 7.168 16.384 17.408 29.696-29.696 64.512-29.696 78.848 0 2.048 3.072 4.096 2.048 1.024 19.456 11.264t33.792 19.456 17.408 9.216q4.096 0 25.6-26.624t29.696-38.912q12.288 2.048 17.408 2.048t17.408-2.048q28.672 40.96 52.224 64.512l4.096 1.024q2.048 0 70.656-39.936 2.048-2.048 2.048-4.096 0-14.336-28.672-78.848 9.216-13.312 16.384-29.696 84.992-8.192 84.992-17.408z" horiz-adv-x="1097" />
<glyph unicode="&#x2709;" d="M107.52 955.904h1179.648q44.032 0 75.776-31.744t31.744-75.776v-803.84q0-45.056-31.744-76.8t-75.776-30.72h-1179.648q-44.032 0-75.776 30.72t-31.744 76.8v803.84q0 44.032 31.744 75.776t75.776 31.744zM178.176 795.136l519.168-433.152 519.168 433.152h-1038.336zM160.768 97.792h1073.152v571.392l-505.856-421.888h-62.464l-504.832 421.888v-571.392z" horiz-adv-x="1393" />
<glyph unicode="&#x2713;" d="M954.368 637.44q0-22.528-15.36-38.912l-491.52-491.52q-16.384-15.36-38.912-15.36t-38.912 15.36l-284.672 284.672q-15.36 16.384-15.36 38.912t15.36 38.912l77.824 77.824q16.384 16.384 38.912 16.384t38.912-16.384l167.936-168.96 374.784 375.808q16.384 16.384 38.912 16.384t38.912-16.384l77.824-77.824q15.36-16.384 15.36-38.912z" />
<glyph unicode="&#xe4a1;" d="M1024 448q0-139.264-68.608-257.024t-186.368-186.368-257.024-68.608-257.024 68.608-186.368 186.368-68.608 257.024 68.608 257.024 186.368 186.368 257.024 68.608 257.024-68.608 186.368-186.368 68.608-257.024zM560.128 210.432l72.704 72.704-164.864 164.864 164.864 164.864-72.704 72.704-238.592-237.568z" />
<glyph unicode="&#xe4a2;" d="M1024 448q0-139.264-68.608-257.024t-186.368-186.368-257.024-68.608-257.024 68.608-186.368 186.368-68.608 257.024 68.608 257.024 186.368 186.368 257.024 68.608 257.024-68.608 186.368-186.368 68.608-257.024zM463.872 210.432l238.592 237.568-238.592 237.568-72.704-72.704 164.864-164.864-164.864-164.864z" />
<glyph unicode="&#xe4a3;" d="M1024 448q0-139.264-68.608-257.024t-186.368-186.368-257.024-68.608-257.024 68.608-186.368 186.368-68.608 257.024 68.608 257.024 186.368 186.368 257.024 68.608 257.024-68.608 186.368-186.368 68.608-257.024zM676.864 327.168l72.704 72.704-237.568 238.592-237.568-238.592 72.704-72.704 164.864 164.864z" />
<glyph unicode="&#xe4a4;" d="M1024 448q0-139.264-68.608-257.024t-186.368-186.368-257.024-68.608-257.024 68.608-186.368 186.368-68.608 257.024 68.608 257.024 186.368 186.368 257.024 68.608 257.024-68.608 186.368-186.368 68.608-257.024zM512 257.536l237.568 238.592-72.704 72.704-164.864-164.864-164.864 164.864-72.704-72.704z" />
<glyph unicode="&#xe600;" d="M794.112 22.528h-564.224l-1.024 19.456c-1.536 33.792-2.56 115.2 13.312 139.776s53.248 39.424 96.768 56.32c11.264 4.096 22.528 8.704 34.304 13.824 25.088 10.752 38.4 17.408 45.056 20.992l0.512 32.768c-5.632 8.192-13.824 22.528-17.408 44.544-19.456 13.312-31.744 45.568-32.256 57.856 0 0.512-1.536 46.080 15.872 64.512 0.512 0.512 1.024 1.024 1.024 1.024 0 7.68 0.512 16.896 1.536 27.648 4.608 49.664 53.248 101.376 125.44 101.376s120.32-51.712 125.44-101.888c0-2.56 1.024-4.608 1.536-7.168 1.536-6.656 3.584-14.848 3.584-27.136 16.384-15.872 14.336-46.080 13.824-58.88-0.512-9.728-9.216-43.52-27.648-57.344-3.072-24.064-12.8-38.912-20.48-47.104l0.512-31.744c6.144-3.584 18.432-10.24 43.008-20.48 11.264-4.608 23.040-9.216 34.304-13.824 43.52-16.896 80.896-31.232 96.768-56.32 15.872-24.576 14.336-105.984 13.312-139.776l-3.072-18.432zM269.312 63.488h485.376c0.512 42.496-1.536 87.040-7.168 96.768-8.704 13.312-43.52 27.136-76.8 39.936-11.264 4.608-23.040 9.216-34.816 13.824-60.416 25.088-64.512 34.816-66.56 40.448l-1.536 7.68-0.512 61.952 9.728 6.144c0 0 11.776 9.216 11.776 35.328v27.136l18.432-5.12c3.584 6.144 8.192 17.408 8.704 22.016 1.536 21.504-0.512 27.136-1.536 29.184l-16.896 4.608 4.608 16.384c1.536 12.288 0 18.432-1.536 25.6-1.024 4.608-2.048 8.192-2.56 12.8-3.072 31.744-35.84 64.512-84.48 64.512-49.152 0-81.408-32.768-84.48-64.512-3.584-19.456-3.584-29.696-3.072-34.816l2.56-27.648-16.896 3.584c-2.048-8.704-3.584-22.016-3.072-28.672 0.512-5.12 7.168-17.92 11.776-24.064l20.48 6.144-1.536-25.088c2.56-27.136 13.824-39.936 13.824-40.448l5.12-6.144v-8.192l-0.512-56.32-3.072-5.12c-2.56-4.096-8.192-12.8-66.56-37.376-11.776-5.12-23.552-9.728-34.816-13.824-33.792-12.8-68.096-26.624-76.8-39.936-5.632-9.728-7.68-54.272-7.168-96.768zM140.8 38.912c-2.048 55.296 0 93.696 4.096 121.344-35.328 61.44-55.296 132.608-55.296 208.384 0 232.96 189.952 422.912 422.912 422.912s422.912-189.952 422.912-422.912c0-75.776-20.48-146.944-55.296-208.896 4.096-27.648 6.144-66.56 4.096-121.344l-0.512-11.264c82.944 90.112 133.632 209.408 133.632 340.992 0 278.016-226.304 504.832-504.832 504.832-278.016 0-504.832-226.304-504.832-504.832 0-131.584 51.2-251.392 133.632-340.992l-0.512 11.776z" />
<glyph unicode="&#xe700;" d="M634.88 221.696q184.32-65.536 184.32-124.928v-108.544h-819.2v206.848q36.864 14.336 83.968 26.624 96.256 34.816 132.096 70.656t35.84 97.28q0 22.528-23.552 49.152t-31.744 75.776q-2.048 12.288-23.552 25.6t-25.6 62.464q0 16.384 5.12 26.624t9.216 12.288l4.096 4.096q-8.192 51.2-12.288 90.112-6.144 55.296 40.96 114.688t163.84 59.392 163.84-59.392 43.008-114.688l-14.336-90.112q18.432-8.192 18.432-43.008-2.048-28.672-9.216-44.032t-14.336-17.408-14.336-8.192-9.216-18.432q-10.24-47.104-33.792-74.752t-23.552-50.176q0-61.44 36.864-97.28t133.12-70.656zM870.4 500.224h153.6v-102.4h-153.6v-153.6h-102.4v153.6h-153.6v102.4h153.6v153.6h102.4v-153.6z" />
<glyph unicode="&#xe715;" d="M768 152.064v57.344l102.4 83.968v-192.512q0-20.48-15.36-35.84t-35.84-15.36h-768q-20.48 0-35.84 15.36t-15.36 35.84v563.2q0 22.528 14.336 36.864t36.864 14.336h294.912q-32.768-24.576-60.416-50.176t-39.936-39.936l-10.24-12.288h-133.12v-460.8h665.6zM684.032 508.416q-169.984 0-247.808-41.984t-163.84-185.344q0 8.192 1.024 22.528t9.216 57.344 22.528 80.896 45.056 84.992 71.68 80.896 109.568 57.344 152.576 23.552v159.744l339.968-256-339.968-266.24v182.272z" />
<glyph unicode="&#xe718;" d="M799.744 768.512h-640q-21.504 0-37.888-15.36t-15.36-36.864v-373.76q0-21.504 15.36-37.888t37.888-16.384h160.768v-8.192l8.192 8.192h471.040q22.528 0 37.888 16.384t16.384 37.888v373.76q0 21.504-16.384 36.864t-37.888 15.36zM799.744 876.032q66.56 0 113.664-47.104t47.104-112.64v-373.76q0-66.56-47.104-113.664t-113.664-47.104h-425.984l-159.744-159.744v159.744h-54.272q-66.56 0-112.64 47.104t-47.104 113.664v373.76q0 66.56 47.104 112.64t112.64 47.104h640z" horiz-adv-x="961" />
<glyph unicode="&#xe71a;" d="M1207.296 484.864q0-129.024-80.896-238.592t-220.16-174.080-303.104-63.488q-124.928 0-239.616 39.936l2.048-3.072-365.568-109.568q45.056 60.416 72.704 129.024t31.744 108.544l4.096 38.912q-108.544 122.88-108.544 272.384 0 129.024 80.896 238.592t220.16 173.056 302.080 63.488 303.104-63.488 220.16-173.056 80.896-238.592z" horiz-adv-x="1207" />
<glyph unicode="&#xe724;" d="M728.064 833.024q124.928-122.88 124.928-296.96t-124.928-296.96l-302.080-296.96-300.032 296.96q-125.952 122.88-125.952 296.96t125.952 296.96 302.080 122.88 300.032-122.88zM425.984 396.8q56.32 0 95.232 37.888 39.936 39.936 39.936 94.208t-39.936 94.208-95.232 39.936q-53.248 0-93.184-39.936t-39.936-94.208 39.936-94.208q38.912-37.888 93.184-37.888z" horiz-adv-x="853" />
<glyph unicode="&#xe729;" d="M51.2 559.616q124.928-71.68 337.92-71.68t337.92 71.68l-55.296-497.664q-2.048-14.336-35.84-36.864t-102.4-44.032-144.384-21.504-143.36 21.504-102.4 44.032-36.864 36.864zM550.912 866.816q96.256-18.432 161.792-56.32t65.536-72.704v-10.24q0-59.392-114.688-101.376t-274.432-41.984-274.432 41.984-114.688 101.376v10.24q0 34.816 65.536 72.704t161.792 56.32l43.008 49.152q22.528 26.624 71.68 26.624h94.208q53.248 0 71.68-26.624zM495.616 752.128h86.016q-94.208 112.64-106.496 129.024-14.336 16.384-32.768 16.384h-104.448q-22.528 0-32.768-16.384l-108.544-129.024h86.016l65.536 67.584h83.968z" horiz-adv-x="778" />
<glyph unicode="&#xe730;" d="M418.816 906.752l285.696-284.672v-630.784h-686.080v915.456h400.384zM133.12 107.008h456.704v456.704h-228.352v228.352h-228.352v-685.056z" horiz-adv-x="722" />
<glyph unicode="&#xe731;" d="M418.816 906.752l285.696-284.672v-630.784h-686.080v915.456h400.384zM358.4 563.712h229.376l-229.376 228.352v-228.352z" horiz-adv-x="722" />
<glyph unicode="&#xe74f;" d="M235.52 961.024l235.52-372.736h-471.040zM235.52-62.976l-235.52 374.784h471.040z" horiz-adv-x="471" />
<glyph unicode="&#xe754;" d="M702.464 303.616q14.336 20.48 14.336-2.048v-102.4q0-75.776-106.496-138.24t-251.904-62.464q-143.36 0-250.88 62.464t-107.52 138.24v102.4q0 8.192 4.096 10.24t10.24-8.192q32.768-53.248 128-88.064t216.064-34.816 216.064 34.816 128 88.064zM704.512 563.712q8.192 16.384 12.288 0v-118.784q0-69.632-104.448-116.736t-253.952-47.104q-147.456 0-252.928 47.104t-105.472 116.736v118.784q0 20.48 14.336 0 30.72-47.104 126.976-76.8t217.088-29.696 217.088 29.696 129.024 76.8zM358.4 899.584q147.456 0 252.928-39.936t105.472-95.232v-65.536q0-59.392-105.472-101.376t-252.928-41.984-252.928 41.984-105.472 101.376v65.536q0 55.296 105.472 95.232t252.928 39.936z" horiz-adv-x="717" />
<glyph unicode="&#xe800;" d="M584.704 558.592q0-14.336-10.24-25.6l-256-256q-11.264-11.264-25.6-11.264t-25.6 11.264l-256 256q-11.264 11.264-11.264 25.6t11.264 25.6 25.6 11.264h512q14.336 0 25.6-11.264t10.24-25.6z" horiz-adv-x="585" />
<glyph unicode="&#xe801;" d="M584.704 265.728q0-14.336-10.24-25.6t-25.6-10.24h-512q-15.36 0-25.6 10.24t-11.264 25.6 11.264 26.624l256 256q10.24 10.24 25.6 10.24t25.6-10.24l256-256q10.24-11.264 10.24-26.624z" horiz-adv-x="585" />
<glyph unicode="&#xe802;" d="M1024 869.888v-843.776q0-36.864-26.624-63.488t-63.488-26.624h-843.776q-36.864 0-63.488 26.624t-26.624 63.488v843.776q0 36.864 26.624 63.488t63.488 26.624h843.776q36.864 0 63.488-26.624t26.624-63.488zM832.512 706.048l20.48 120.832q-44.032 15.36-146.432 15.36-80.896 0-125.952-59.392-26.624-34.816-26.624-121.856v-79.872h-80.896v-117.76h80.896v-409.6h152.576v409.6h120.832l9.216 117.76h-130.048v92.16q0 43.008 60.416 43.008 31.744 0 65.536-10.24z" />
<glyph unicode="&#xe803;" d="M584.704 449.024q0 60.416-41.984 103.424t-103.424 43.008-103.424-43.008-43.008-103.424 43.008-103.424 103.424-43.008 103.424 43.008 41.984 103.424zM877.568 511.488v-126.976q0-7.168-4.096-13.312t-11.264-7.168l-106.496-16.384q-10.24-30.72-21.504-52.224 19.456-27.648 60.416-78.848 6.144-6.144 6.144-13.312t-5.12-13.312q-15.36-21.504-56.32-62.464t-54.272-39.936q-7.168 0-14.336 5.12l-78.848 61.44q-25.6-13.312-52.224-21.504-9.216-77.824-16.384-106.496-4.096-16.384-20.48-16.384h-126.976q-8.192 0-14.336 5.12t-6.144 12.288l-16.384 105.472q-27.648 9.216-51.2 21.504l-80.896-61.44q-6.144-5.12-14.336-5.12t-14.336 6.144q-71.68 65.536-94.208 96.256-4.096 5.12-4.096 13.312 0 6.144 5.12 12.288 8.192 12.288 28.672 37.888t30.72 40.96q-15.36 28.672-23.552 56.32l-104.448 15.36q-7.168 1.024-11.264 7.168t-5.12 13.312v126.976q0 7.168 5.12 13.312t10.24 7.168l106.496 16.384q8.192 25.6 22.528 52.224-23.552 32.768-61.44 78.848-6.144 7.168-6.144 14.336 0 5.12 5.12 12.288 15.36 20.48 56.32 61.44t54.272 40.96q7.168 0 15.36-5.12l78.848-61.44q24.576 13.312 51.2 21.504 9.216 77.824 17.408 106.496 3.072 15.36 20.48 15.36h126.976q7.168 0 13.312-4.096t7.168-12.288l15.36-105.472q28.672-9.216 51.2-21.504l81.92 61.44q5.12 5.12 13.312 5.12 7.168 0 14.336-5.12 73.728-68.608 94.208-97.28 4.096-5.12 4.096-13.312 0-6.144-4.096-12.288-9.216-12.288-29.696-38.912t-30.72-39.936q14.336-28.672 23.552-56.32l104.448-15.36q7.168-1.024 12.288-7.168t4.096-13.312z" horiz-adv-x="878" />
<glyph unicode="&#xe804;" d="M909.312 434.688q16.384-16.384 11.264-27.648t-27.648-11.264h-86.016v-317.44q0-14.336-1.024-21.504t-8.192-13.312-23.552-6.144h-208.896v317.44h-208.896v-317.44h-198.656q-28.672 0-35.84 10.24t-7.168 30.72v317.44h-86.016q-22.528 0-27.648 11.264t11.264 27.648l409.6 411.648q16.384 16.384 38.912 16.384t38.912-16.384z" horiz-adv-x="922" />
<glyph unicode="&#xe805;" d="M804.864 540.16v-109.568q0-22.528-16.384-38.912t-38.912-15.36h-237.568v-238.592q0-22.528-16.384-37.888t-38.912-16.384h-109.568q-22.528 0-38.912 16.384t-15.36 37.888v238.592h-237.568q-23.552 0-38.912 15.36t-16.384 38.912v109.568q0 23.552 16.384 38.912t38.912 16.384h237.568v237.568q0 22.528 15.36 38.912t38.912 16.384h109.568q23.552 0 38.912-16.384t16.384-38.912v-237.568h237.568q22.528 0 38.912-16.384t16.384-38.912z" horiz-adv-x="804" />
<glyph unicode="&#xe806;" d="M478.208 465.408l-459.776 215.040v111.616h914.432v-111.616zM478.208 339.456l454.656 215.040v-447.488h-914.432v448.512z" horiz-adv-x="950" />
<glyph unicode="&#xe807;" d="M854.016 795.136q45.056 0 75.776-30.72t30.72-75.776v-479.232q0-44.032-30.72-75.776t-75.776-30.72h-747.52q-45.056 0-75.776 30.72t-30.72 75.776v479.232q0 45.056 30.72 75.776t75.776 30.72h747.52zM422.912 330.24l-83.968 73.728-194.56-194.56h670.72l-194.56 194.56-82.944-73.728q-24.576-20.48-57.344-20.48t-57.344 20.48zM106.496 246.272l191.488 193.536-191.488 166.912v-360.448zM661.504 439.808l192.512-192.512v359.424zM854.016 688.64h-747.52v-11.264l350.208-307.2q9.216-7.168 23.552-7.168t22.528 7.168l351.232 307.2v11.264z" horiz-adv-x="961" />
<glyph unicode="&#xe808;" d="M716.8 807.424q43.008 0 72.704-29.696t29.696-72.704v-358.4q0-40.96-29.696-71.68t-72.704-30.72h-204.8v-153.6l-204.8 153.6h-204.8q-40.96 0-71.68 30.72t-30.72 71.68v358.4q0 43.008 30.72 72.704t71.68 29.696h614.4z" horiz-adv-x="819" />
<glyph unicode="&#xe809;" d="M292.864 540.16v-328.704q0-8.192-5.12-13.312t-13.312-5.12h-36.864q-8.192 0-13.312 5.12t-5.12 13.312v328.704q0 8.192 5.12 13.312t13.312 5.12h36.864q8.192 0 13.312-5.12t5.12-13.312zM439.296 540.16v-328.704q0-8.192-5.12-13.312t-13.312-5.12h-36.864q-8.192 0-13.312 5.12t-5.12 13.312v328.704q0 8.192 5.12 13.312t13.312 5.12h36.864q8.192 0 13.312-5.12t5.12-13.312zM584.704 540.16v-328.704q0-8.192-5.12-13.312t-12.288-5.12h-36.864q-8.192 0-13.312 5.12t-5.12 13.312v328.704q0 8.192 5.12 13.312t13.312 5.12h36.864q7.168 0 12.288-5.12t5.12-13.312zM658.432 126.464v541.696h-512v-541.696q0-12.288 4.096-22.528t8.192-15.36 6.144-5.12h475.136q2.048 0 6.144 5.12t8.192 15.36 4.096 22.528zM274.432 741.888h256l-27.648 66.56q-4.096 5.12-9.216 6.144h-181.248q-6.144-1.024-10.24-6.144zM804.864 723.456v-36.864q0-8.192-5.12-13.312t-13.312-5.12h-55.296v-541.696q0-47.104-26.624-81.92t-64.512-34.816h-475.136q-37.888 0-64.512 33.792t-27.648 80.896v543.744h-54.272q-8.192 0-13.312 5.12t-5.12 13.312v36.864q0 8.192 5.12 13.312t13.312 5.12h176.128l39.936 95.232q9.216 21.504 31.744 35.84t45.056 15.36h182.272q22.528 0 45.056-15.36t30.72-35.84l39.936-95.232h177.152q8.192 0 13.312-5.12t5.12-13.312z" horiz-adv-x="804" />
<glyph unicode="&#xe80a;" d="M507.904 284.16l65.536 66.56-87.040 87.040-65.536-66.56v-31.744h54.272v-55.296h32.768zM758.784 695.808q-9.216 9.216-18.432 0l-200.704-200.704q-9.216-9.216 0-18.432t18.432 0l200.704 200.704q9.216 9.216 0 18.432zM804.864 356.864v-108.544q0-68.608-48.128-116.736t-116.736-48.128h-475.136q-68.608 0-116.736 48.128t-48.128 116.736v475.136q0 67.584 48.128 115.712t116.736 49.152h475.136q35.84 0 66.56-14.336 9.216-4.096 10.24-13.312 2.048-10.24-5.12-16.384l-27.648-28.672q-8.192-8.192-18.432-4.096-13.312 3.072-25.6 3.072h-475.136q-37.888 0-64.512-26.624t-27.648-64.512v-475.136q0-37.888 27.648-64.512t64.512-27.648h475.136q37.888 0 64.512 27.648t26.624 64.512v71.68q0 7.168 5.12 12.288l36.864 36.864q8.192 8.192 20.48 4.096t11.264-16.384zM749.568 777.728l164.864-163.84-384-384h-164.864v163.84zM1003.52 702.976l-52.224-53.248-164.864 164.864 52.224 52.224q16.384 16.384 38.912 16.384t38.912-16.384l87.040-86.016q16.384-16.384 16.384-38.912t-16.384-38.912z" />
<glyph unicode="&#xe80b;" d="M183.296 521.728h291.84v110.592q0 60.416-43.008 103.424t-103.424 41.984-103.424-41.984-41.984-103.424v-110.592zM658.432 467.456v-329.728q0-22.528-16.384-37.888t-38.912-16.384h-547.84q-23.552 0-38.912 16.384t-16.384 37.888v329.728q0 22.528 16.384 38.912t38.912 15.36h17.408v110.592q0 104.448 75.776 180.224t180.224 75.776 181.248-75.776 74.752-180.224v-110.592h18.432q23.552 0 38.912-15.36t16.384-38.912z" horiz-adv-x="657" />
<glyph unicode="&#xe80c;" d="M731.136 558.592q0 15.36-10.24 25.6t-25.6 11.264q-98.304 0-182.272-28.672t-148.48-76.8-134.144-124.928q-11.264-12.288-11.264-25.6 0-15.36 11.264-25.6t25.6-11.264q13.312 0 25.6 11.264 15.36 13.312 41.984 39.936t38.912 37.888q77.824 70.656 153.6 100.352t179.2 29.696q14.336 0 25.6 11.264t10.24 25.6zM1024 672.256q0-54.272-11.264-110.592-26.624-128-105.472-219.136t-204.8-152.576q-121.856-62.464-249.856-62.464-84.992 0-163.84 27.648-8.192 2.048-50.176 23.552t-54.272 21.504q-9.216 0-22.528-18.432t-25.6-39.936-30.72-39.936-33.792-18.432q-17.408 0-29.696 6.144t-17.408 13.312-15.36 24.576q-1.024 2.048-3.072 6.144t-3.072 6.144-2.048 5.12-1.024 7.168q0 20.48 17.408 41.984t38.912 37.888 38.912 31.744 18.432 27.648q0 2.048-8.192 21.504t-9.216 25.6q-5.12 28.672-5.12 59.392 0 65.536 24.576 125.952t67.584 105.472 98.304 78.848 115.712 54.272q31.744 10.24 82.944 15.36t102.4 5.12 102.4 3.072 93.184 13.312 65.536 32.768l16.384 16.384t17.408 16.384 15.36 11.264 20.48 9.216 24.576 3.072q22.528 0 40.96-26.624t26.624-64.512 14.336-70.656 4.096-54.272z" />
<glyph unicode="&#xe80d;" d="M491.52 940.544q204.8 0 348.16-144.384t143.36-347.136q0-204.8-143.36-348.16t-348.16-143.36q-202.752 0-347.136 143.36t-144.384 348.16q0 202.752 144.384 347.136t347.136 144.384zM911.36 449.024q0 135.168-79.872 244.736t-206.848 152.576q-18.432-24.576-16.384-32.768 4.096-38.912 18.432-52.224t30.72-7.168l32.768 12.288t20.48 2.048q22.528-24.576 0-48.128t-46.080-57.344-1.024-78.848q34.816-65.536 98.304-65.536 28.672-2.048 44.032-36.864t17.408-67.584q10.24-81.92-14.336-143.36-22.528-45.056 14.336-77.824 88.064 114.688 88.064 256zM434.176 862.72q-114.688-14.336-203.776-86.016t-130.048-178.176q6.144 0 22.528-2.048t28.672-3.072 26.624-4.096 24.576-8.192 12.288-13.312q4.096-12.288-14.336-46.080t-18.432-62.464q0-30.72 38.912-57.344t38.912-47.104q0-28.672 8.192-69.632t8.192-45.056q0-12.288 36.864-55.296t53.248-43.008q10.24 0 11.264 22.528t-2.048 55.296-3.072 40.96q0 32.768 14.336 75.776 12.288 43.008 60.416 71.68t56.32 47.104q16.384 34.816 9.216 62.464t-17.408 44.032-34.816 28.672-41.984 17.408-37.888 9.216-22.528 4.096q-16.384 6.144-43.008 7.168t-36.864-3.072-27.648 11.264-17.408 29.696q0 10.24 15.36 27.648t35.84 37.888 28.672 30.72q8.192 14.336 17.408 21.504t22.528 16.384 27.648 21.504q4.096 4.096 25.6 17.408t27.648 23.552zM360.448 49.664q67.584-20.48 131.072-20.48 131.072 0 231.424 69.632-26.624 45.056-120.832 34.816-24.576-2.048-66.56-17.408t-48.128-17.408q-75.776-16.384-77.824-16.384-12.288-2.048-26.624-14.336t-22.528-18.432z" horiz-adv-x="983" />
<glyph unicode="&#xe80e;" d="M18.432-8.704v572.416h914.432v-572.416h-914.432zM533.504 678.4v228.352h284.672l114.688-228.352h-399.36zM418.816 906.752v-228.352h-400.384l114.688 228.352h285.696z" horiz-adv-x="950" />
<glyph unicode="&#xe80f;" d="M365.568 705.024v-512q0-14.336-10.24-25.6t-26.624-11.264-25.6 11.264l-256 256q-10.24 11.264-10.24 25.6t10.24 25.6l256 256q11.264 11.264 25.6 11.264t26.624-11.264 10.24-25.6z" horiz-adv-x="366" />
<glyph unicode="&#xe810;" d="M328.704 449.024q0-14.336-10.24-25.6l-256-256q-11.264-11.264-25.6-11.264t-25.6 11.264-11.264 25.6v512q0 15.36 11.264 25.6t25.6 11.264 25.6-11.264l256-256q10.24-10.24 10.24-25.6z" horiz-adv-x="366" />
<glyph unicode="&#xe811;" d="M593.92 265.728q0-18.432-13.312-31.744t-31.744-13.312-32.768 13.312-13.312 31.744 13.312 32.768 32.768 13.312 31.744-13.312 13.312-32.768zM740.352 265.728q0-18.432-13.312-31.744t-31.744-13.312-32.768 13.312-13.312 31.744 13.312 32.768 32.768 13.312 31.744-13.312 13.312-32.768zM804.864 174.592v183.296q0 7.168-6.144 12.288t-12.288 6.144h-695.296q-7.168 0-12.288-6.144t-6.144-12.288v-183.296q0-7.168 6.144-12.288t12.288-6.144h695.296q7.168 0 12.288 6.144t6.144 12.288zM101.376 449.024h674.816l-90.112 275.456q-2.048 7.168-9.216 12.288t-14.336 5.12h-447.488q-7.168 0-14.336-5.12t-9.216-12.288zM877.568 357.888v-183.296q0-37.888-26.624-64.512t-64.512-26.624h-695.296q-36.864 0-64.512 26.624t-26.624 64.512v183.296q0 14.336 9.216 43.008l112.64 346.112q9.216 29.696 35.84 49.152t57.344 18.432h447.488q30.72 0 57.344-18.432t35.84-49.152l112.64-346.112q9.216-28.672 9.216-43.008z" horiz-adv-x="878" />
<glyph unicode="&#xe812;" d="M584.704 702.976l181.248-181.248-326.656-326.656-181.248 181.248zM464.896 142.848l353.28 353.28q10.24 11.264 10.24 25.6t-10.24 26.624l-206.848 206.848q-10.24 10.24-26.624 10.24t-25.6-10.24l-353.28-353.28q-10.24-11.264-10.24-25.6t10.24-26.624l206.848-206.848q11.264-10.24 26.624-10.24t25.6 10.24zM972.8 507.392l-518.144-519.168q-21.504-20.48-52.224-20.48t-51.2 20.48l-72.704 71.68q32.768 32.768 32.768 77.824t-32.768 77.824-77.824 32.768-76.8-32.768l-71.68 72.704q-21.504 20.48-21.504 51.2t21.504 52.224l518.144 517.12q21.504 21.504 51.2 21.504t52.224-21.504l71.68-71.68q-32.768-31.744-32.768-76.8t32.768-77.824 77.824-32.768 76.8 32.768l72.704-71.68q20.48-21.504 20.48-52.224t-20.48-51.2z" />
<glyph unicode="&#xe813;" d="M584.704 412.16h180.224q0 2.048-1.024 5.12t-2.048 4.096l-120.832 283.648h-404.48l-120.832-283.648q-1.024-1.024-2.048-4.096t-1.024-5.12h180.224l54.272-109.568h183.296zM877.568 395.776v-275.456q0-15.36-10.24-26.624t-26.624-10.24h-803.84q-15.36 0-25.6 10.24t-11.264 26.624v275.456q0 34.816 14.336 69.632l136.192 315.392q5.12 14.336 20.48 24.576t29.696 9.216h476.16q14.336 0 29.696-9.216t20.48-24.576l136.192-315.392q14.336-34.816 14.336-69.632z" horiz-adv-x="878" />
<glyph unicode="&#xe814;" d="M860.16 705.024v-51.2h-712.704v51.2q0 22.528 13.312 35.84t25.6 15.36h622.592q6.144 0 14.336-1.024t22.528-14.336 14.336-35.84zM708.608 858.624q6.144 0 14.336-1.024t22.528-14.336 14.336-35.84h-509.952q0 22.528 13.312 35.84t25.6 15.36h419.84zM962.56 653.824q34.816-32.768 38.912-47.104 6.144-18.432 0-55.296l-77.824-460.8q-4.096-22.528-20.48-35.84t-28.672-15.36h-727.040q-53.248 0-61.44 51.2-6.144 26.624-39.936 228.352t-39.936 232.448q-10.24 22.528-3.072 45.056t10.24 26.624 21.504 20.48l40.96 40.96v-81.92h856.064v81.92zM708.608 377.344v102.4h-71.68v-81.92h-266.24v81.92h-69.632v-102.4q0-51.2 49.152-51.2h307.2q22.528 0 35.84 12.288t13.312 24.576z" horiz-adv-x="1005" />
<glyph unicode="&#xe815;" d="M584.704 156.16h366.592v73.728h-366.592v-73.728zM365.568 449.024h585.728v72.704h-585.728v-72.704zM731.136 741.888h220.16v72.704h-220.16v-72.704zM1024 265.728v-145.408q0-15.36-11.264-25.6t-25.6-11.264h-950.272q-15.36 0-25.6 11.264t-11.264 25.6v145.408q0 15.36 11.264 26.624t25.6 10.24h950.272q15.36 0 25.6-10.24t11.264-26.624zM1024 558.592v-146.432q0-14.336-11.264-25.6t-25.6-10.24h-950.272q-15.36 0-25.6 10.24t-11.264 25.6v146.432q0 15.36 11.264 25.6t25.6 11.264h950.272q15.36 0 25.6-11.264t11.264-25.6zM1024 851.456v-146.432q0-15.36-11.264-25.6t-25.6-11.264h-950.272q-15.36 0-25.6 11.264t-11.264 25.6v146.432q0 14.336 11.264 25.6t25.6 11.264h950.272q15.36 0 25.6-11.264t11.264-25.6z" />
<glyph unicode="&#xe830;" d="M507.904 961.024c-180.224 0-338.944-92.16-431.104-231.424-18.432-27.648-33.792-56.32-47.104-87.040-12.288-29.696-21.504-61.44-28.672-94.208 0 0 0-1.024 0-1.024v0 0c0-1.024 0-2.048 0-2.048 0-7.168 5.12-12.288 11.264-12.288h103.424c5.12 0 10.24 4.096 11.264 9.216 29.696 115.712 111.616 210.944 219.136 259.072 20.48 10.24 41.984 17.408 64.512 23.552 31.744 7.168 63.488 11.264 97.28 11.264v0 0 0c25.6 0 51.2-2.048 75.776-7.168 5.12-1.024 10.24-2.048 14.336-3.072 6.144-1.024 10.24-3.072 14.336-4.096v0c5.12-1.024 11.264 1.024 13.312 6.144l52.224 89.088c0 0 1.024 1.024 1.024 2.048 2.048 6.144-1.024 13.312-7.168 15.36-22.528 7.168-44.032 13.312-66.56 17.408-5.12 1.024-9.216 1.024-13.312 2.048-27.648 5.12-55.296 7.168-83.968 7.168v0 0zM842.752 844.288c-5.12 0-9.216-2.048-11.264-6.144l-51.2-89.088c-3.072-4.096-2.048-10.24 2.048-14.336 29.696-29.696 55.296-64.512 74.752-103.424 4.096-7.168 7.168-14.336 11.264-22.528 19.456-47.104 30.72-99.328 30.72-154.624v0 0c0-78.848-22.528-152.576-63.488-214.016-7.168-11.264-15.36-23.552-24.576-34.816-9.216-10.24-18.432-20.48-28.672-30.72v0 0 0c-4.096-4.096-5.12-10.24-2.048-14.336l51.2-89.088c0-1.024 1.024-2.048 2.048-3.072 4.096-5.12 11.264-5.12 16.384-1.024 59.392 53.248 106.496 119.808 137.216 194.56 6.144 14.336 11.264 29.696 15.36 45.056 14.336 47.104 21.504 96.256 21.504 147.456 0 110.592-34.816 214.016-94.208 297.984-11.264 16.384-23.552 31.744-37.888 47.104-13.312 14.336-26.624 28.672-41.984 41.984v0c-1.024 1.024-1.024 1.024-2.048 1.024-2.048 1.024-4.096 2.048-5.12 2.048zM12.288 365.056v0c-1.024 0-2.048 0-3.072 0-6.144-1.024-10.24-8.192-9.216-14.336 34.816-169.984 152.576-309.248 309.248-374.784 30.72-12.288 62.464-21.504 95.232-28.672 32.768-6.144 67.584-10.24 102.4-10.24v0 0c40.96 0 80.896 5.12 119.808 14.336 7.168 1.024 14.336 3.072 22.528 5.12 6.144 2.048 13.312 5.12 20.48 7.168 1.024 0 2.048 1.024 3.072 1.024 6.144 3.072 8.192 10.24 4.096 16.384l-51.2 89.088c-3.072 5.12-8.192 7.168-13.312 6.144-14.336-4.096-28.672-7.168-43.008-9.216-3.072-1.024-6.144-1.024-8.192-2.048-18.432-2.048-35.84-3.072-54.272-3.072v0 0c-131.072 0-247.808 64.512-318.464 163.84-1.024 0-1.024 0-1.024 0-13.312 19.456-25.6 40.96-35.84 62.464s-18.432 44.032-24.576 66.56c-1.024 6.144-6.144 10.24-11.264 10.24h-103.424z" />
<glyph unicode="&#xeab1;" d="M512.008 947.358c-282.738 0-512.008-229.218-512.008-511.998 0-226.214 146.704-418.132 350.136-485.836 25.586-4.738 34.992 11.11 34.992 24.632 0 12.204-0.48 52.542-0.696 95.324-142.448-30.976-172.504 60.41-172.504 60.41-23.282 59.176-56.848 74.916-56.848 74.916-46.452 31.778 3.51 31.124 3.51 31.124 51.4-3.61 78.476-52.766 78.476-52.766 45.672-78.27 119.776-55.64 149.004-42.558 4.588 33.086 17.852 55.68 32.506 68.464-113.73 12.942-233.276 56.85-233.276 253.032 0 55.898 20.004 101.574 52.76 137.428-5.316 12.9-22.854 64.972 4.952 135.5 0 0 43.006 13.752 140.84-52.49 40.836 11.348 84.636 17.036 128.154 17.234 43.502-0.198 87.336-5.886 128.256-17.234 97.734 66.244 140.656 52.49 140.656 52.49 27.872-70.528 10.35-122.6 5.036-135.5 32.82-35.856 52.694-81.532 52.694-137.428 0-196.654-119.778-239.95-233.79-252.624 18.364-15.89 34.724-47.046 34.724-94.812 0-68.508-0.596-123.644-0.596-140.508 0-13.628 9.222-29.594 35.172-24.566 203.322 67.776 349.842 259.626 349.842 485.768 0 282.78-229.234 511.998-511.992 511.998z" />
<glyph unicode="&#xeab2;" d="M512.008 947.358c-282.738 0-512.008-229.218-512.008-511.998 0-226.214 146.704-418.132 350.136-485.836 25.586-4.738 34.992 11.11 34.992 24.632 0 12.204-0.48 52.542-0.696 95.324-142.448-30.976-172.504 60.41-172.504 60.41-23.282 59.176-56.848 74.916-56.848 74.916-46.452 31.778 3.51 31.124 3.51 31.124 51.4-3.61 78.476-52.766 78.476-52.766 45.672-78.27 119.776-55.64 149.004-42.558 4.588 33.086 17.852 55.68 32.506 68.464-113.73 12.942-233.276 56.85-233.276 253.032 0 55.898 20.004 101.574 52.76 137.428-5.316 12.9-22.854 64.972 4.952 135.5 0 0 43.006 13.752 140.84-52.49 40.836 11.348 84.636 17.036 128.154 17.234 43.502-0.198 87.336-5.886 128.256-17.234 97.734 66.244 140.656 52.49 140.656 52.49 27.872-70.528 10.35-122.6 5.036-135.5 32.82-35.856 52.694-81.532 52.694-137.428 0-196.654-119.778-239.95-233.79-252.624 18.364-15.89 34.724-47.046 34.724-94.812 0-68.508-0.596-123.644-0.596-140.508 0-13.628 9.222-29.594 35.172-24.566 203.322 67.776 349.842 259.626 349.842 485.768 0 282.78-229.234 511.998-511.992 511.998z" />
<glyph unicode="&#xf0d6;" d="M439.296 302.592h219.136v55.296h-73.728v256h-64.512l-84.992-78.848 44.032-45.056q24.576 20.48 31.744 31.744h1.024v-163.84h-72.704v-55.296zM731.136 449.024q0-39.936-11.264-80.896t-34.816-76.8-57.344-57.344-78.848-22.528-78.848 22.528-58.368 57.344-33.792 76.8-12.288 80.896 12.288 80.896 33.792 76.8 58.368 57.344 78.848 22.528 78.848-22.528 57.344-57.344 34.816-76.8 11.264-80.896zM1024 302.592v292.864q-60.416 0-103.424 43.008t-43.008 103.424h-658.432q0-60.416-43.008-103.424t-103.424-43.008v-292.864q61.44 0 103.424-43.008t43.008-103.424h658.432q0 60.416 43.008 103.424t103.424 43.008zM1096.704 777.728v-657.408q0-15.36-10.24-26.624t-25.6-10.24h-1024q-15.36 0-25.6 10.24t-11.264 26.624v657.408q0 15.36 11.264 26.624t25.6 10.24h1024q14.336 0 25.6-10.24t10.24-26.624z" horiz-adv-x="1097" />
<glyph unicode="&#xf0e0;" d="M1024 555.52v-453.632q0-37.888-26.624-64.512t-64.512-27.648h-841.728q-36.864 0-64.512 27.648t-26.624 64.512v453.632q25.6-28.672 57.344-50.176 206.848-140.288 284.672-196.608 32.768-24.576 52.224-37.888t54.272-27.648 62.464-13.312h2.048q28.672 0 62.464 13.312t54.272 27.648 52.224 37.888q97.28 69.632 284.672 196.608 32.768 22.528 57.344 50.176zM1024 723.456q0-45.056-27.648-86.016t-69.632-70.656q-215.040-149.504-268.288-185.344-5.12-4.096-23.552-17.408t-30.72-22.528-29.696-18.432-33.792-15.36-27.648-5.12h-2.048q-12.288 0-27.648 5.12t-33.792 15.36-29.696 18.432-30.72 22.528-23.552 17.408q-52.224 35.84-150.528 103.424t-116.736 81.92q-35.84 23.552-66.56 65.536t-31.744 78.848q0 44.032 23.552 73.728t67.584 29.696h841.728q36.864 0 63.488-26.624t27.648-64.512z" />
<glyph unicode="&#xf301;" d="M187.392 961.024c-104.448 0-187.392-82.944-187.392-187.392v-649.216c0-104.448 82.944-187.392 187.392-187.392h352.256v400.384h-106.496v144.384h106.496v122.88c0 96.256 62.464 185.344 205.824 185.344 58.368 0 102.4-5.12 102.4-5.12l-4.096-135.168s-44.032 1.024-92.16 1.024c-51.2 0-59.392-24.576-59.392-63.488v-105.472h155.648l-6.144-144.384h-149.504v-400.384h144.384c104.448 0 187.392 82.944 187.392 187.392v649.216c0 104.448-82.944 187.392-187.392 187.392h-649.216z" />
<glyph unicode="&#xf308;" d="M1104.896 962.048c-33.792 1.024-112.64-11.264-244.736-99.328-71.68 18.432-148.48 26.624-224.256 26.624-84.992 0-169.984-10.24-248.832-31.744-189.44 129.024-273.408 102.4-273.408 102.4-54.272-136.192-20.48-237.568-10.24-262.144-64.512-69.632-103.424-157.696-103.424-266.24 0-81.92 9.216-154.624 31.744-219.136 2.048-4.096 1.024-3.072 3.072-8.192 5.12-12.288 11.264-25.6 17.408-37.888 2.048-4.096 4.096-8.192 4.096-8.192 63.488-118.784 189.44-195.584 413.696-220.16h338.944c238.592 23.552 353.28 100.352 406.528 221.184l3.072 7.168c5.12 12.288 9.216 24.576 21.504 67.584 12.288 41.984 17.408 115.712 17.408 197.632 0 117.76-44.032 211.968-115.712 282.624 12.288 40.96 28.672 131.072-17.408 245.76 0 0-6.144 2.048-19.456 2.048zM837.632 530.944c55.296 0 102.4-9.216 138.24-47.104v0c44.032-46.080 70.656-102.4 70.656-162.816 0-283.648-182.272-291.84-407.552-291.84-224.256 0-406.528 39.936-406.528 291.84 0 59.392 25.6 115.712 69.632 161.792 72.704 77.824 196.608 36.864 336.896 36.864 72.704 0 140.288 11.264 198.656 11.264zM419.84 446.976c-47.104 0-84.992-62.464-84.992-140.288 0-78.848 37.888-141.312 84.992-141.312 46.080 0 83.968 62.464 83.968 141.312 0 77.824-37.888 140.288-83.968 140.288zM873.472 446.976c-46.080 0-83.968-62.464-83.968-140.288 0-78.848 37.888-141.312 83.968-141.312 47.104 0 84.992 62.464 84.992 141.312 0 77.824-37.888 140.288-84.992 140.288z" horiz-adv-x="1257" />
<glyph unicode="&#x1f464;" d="M753.664 221.696q208.896-73.728 208.896-124.928v-108.544h-962.56v108.544q0 51.2 208.896 124.928 96.256 34.816 131.072 70.656t34.816 97.28q0 22.528-22.528 50.176t-32.768 74.752q-2.048 12.288-9.216 18.432t-14.336 8.192-14.336 17.408-9.216 44.032q0 16.384 5.12 26.624t9.216 12.288l4.096 4.096q-8.192 51.2-12.288 90.112-4.096 55.296 41.984 114.688t160.768 59.392 161.792-59.392 40.96-114.688l-12.288-90.112q18.432-8.192 18.432-43.008-2.048-28.672-9.216-44.032t-14.336-17.408-14.336-8.192-9.216-18.432q-8.192-49.152-31.744-75.776t-23.552-49.152q0-61.44 35.84-97.28t130.048-70.656z" horiz-adv-x="963" />
<glyph unicode="&#x1f465;" d="M1024-1.536h-229.376v153.6q0 55.296-30.72 82.944t-157.696 91.136q40.96 30.72 40.96 86.016 0 16.384-13.312 33.792t-19.456 52.224q-2.048 8.192-14.336 16.384t-14.336 43.008q0 24.576 12.288 30.72-6.144 34.816-8.192 61.44-4.096 38.912 23.552 79.872t97.28 40.96 98.304-40.96 24.576-79.872l-8.192-61.44q12.288-6.144 12.288-30.72-2.048-34.816-14.336-43.008t-14.336-16.384q-6.144-34.816-19.456-52.224t-13.312-33.792q0-43.008 21.504-67.584t78.848-49.152q114.688-47.104 133.12-81.92 6.144-8.192 9.216-62.464t5.12-103.424v-49.152zM524.288 266.752q186.368-79.872 186.368-126.976v-141.312h-710.656v188.416q0 45.056 86.016 79.872 77.824 32.768 106.496 65.536t28.672 90.112q0 20.48-19.456 45.056t-25.6 69.632q-2.048 10.24-18.432 22.528t-20.48 57.344q0 14.336 3.072 23.552t7.168 13.312l4.096 2.048q-6.144 47.104-10.24 83.968-4.096 51.2 33.792 105.472t130.048 54.272 130.048-54.272 33.792-105.472l-10.24-83.968q14.336-8.192 14.336-38.912-4.096-45.056-20.48-57.344t-18.432-22.528q-6.144-45.056-25.6-69.632t-19.456-45.056q0-57.344 28.672-90.112t106.496-65.536z" />
<glyph unicode="&#x1f4b5;" d="M0 441.856c382.976 0 571.392 442.368 953.344 444.416 65.536-142.336 133.12-285.696 199.68-429.056-381.952 0-543.744-412.672-953.344-444.416-66.56 143.36-133.12 285.696-199.68 429.056zM122.88 374.272c44.032-94.208 87.040-186.368 131.072-279.552 108.544 20.48 200.704 74.752 288.768 139.264-50.176 19.456-87.040 60.416-108.544 106.496-24.576 54.272-28.672 112.64-20.48 172.032-88.064-64.512-180.224-119.808-290.816-138.24zM1030.144 524.8c-44.032 93.184-87.040 187.392-130.048 279.552-108.544-20.48-202.752-74.752-290.816-141.312 51.2-17.408 87.040-60.416 108.544-104.448 24.576-54.272 29.696-112.64 20.48-172.032 89.088 65.536 182.272 118.784 291.84 138.24zM357.376 212.48c-6.144 13.312-11.264 24.576-18.432 36.864-2.048-1.024-6.144-2.048-10.24-2.048 2.048-14.336 4.096-26.624 7.168-40.96 7.168 1.024 15.36 2.048 21.504 6.144zM385.024 236.032c4.096 6.144 8.192 13.312 12.288 21.504-14.336 4.096-27.648 7.168-39.936 12.288-1.024-3.072-4.096-7.168-5.12-10.24 10.24-7.168 21.504-16.384 32.768-23.552zM300.032 212.48c5.12 13.312 8.192 24.576 13.312 35.84-3.072 1.024-7.168 4.096-8.192 5.12-9.216-10.24-18.432-19.456-27.648-29.696 7.168-5.12 14.336-10.24 22.528-11.264zM398.336 294.4c-1.024 8.192-3.072 15.36-5.12 23.552h-1.024c-12.288-8.192-23.552-14.336-35.84-20.48v-2.048c2.048-2.048 2.048-6.144 2.048-10.24 15.36 3.072 26.624 5.12 39.936 9.216zM256 252.416c14.336 5.12 25.6 9.216 38.912 15.36-2.048 4.096-3.072 5.12-3.072 9.216-14.336-2.048-29.696-2.048-43.008-2.048 1.024-7.168 3.072-15.36 7.168-22.528zM346.112 308.736c7.168 11.264 16.384 22.528 23.552 34.816-6.144 5.12-12.288 8.192-18.432 10.24-5.12-13.312-10.24-25.6-14.336-39.936 2.048-1.024 6.144-4.096 9.216-5.12zM292.864 292.352c3.072 2.048 4.096 6.144 5.12 10.24-10.24 7.168-20.48 16.384-31.744 25.6-6.144-7.168-9.216-12.288-11.264-20.48 12.288-5.12 26.624-10.24 37.888-15.36zM321.536 314.88c-1.024 14.336-4.096 26.624-5.12 40.96-8.192-1.024-15.36-4.096-23.552-6.144 4.096-8.192 5.12-11.264 9.216-19.456-4.096 8.192-5.12 11.264-9.216 19.456 7.168-13.312 12.288-25.6 18.432-38.912 4.096 3.072 6.144 3.072 10.24 4.096zM813.056 556.544c-14.336 33.792-29.696 64.512-45.056 96.256-7.168-4.096-12.288-6.144-19.456-11.264 15.36-31.744 28.672-64.512 44.032-96.256 7.168 5.12 11.264 8.192 20.48 11.264zM902.144 600.576c-13.312 30.72-30.72 62.464-44.032 94.208-8.192-2.048-12.288-5.12-20.48-8.192 15.36-30.72 30.72-63.488 44.032-94.208 9.216 3.072 13.312 4.096 20.48 8.192zM858.112 580.096c-15.36 32.768-30.72 63.488-46.080 96.256-8.192-4.096-12.288-7.168-19.456-10.24 15.36-30.72 30.72-63.488 45.056-95.232 7.168 3.072 11.264 5.12 20.48 9.216z" horiz-adv-x="1153" />
<glyph unicode="&#x1f4be;" d="M673.792 858.624l145.408-159.744v-557.056q0-40.96-29.696-71.68t-72.704-30.72h-614.4q-40.96 0-71.68 30.72t-30.72 71.68v614.4q0 43.008 30.72 72.704t71.68 29.696h571.392zM614.4 551.424v256h-409.6v-256q0-20.48 15.36-35.84t35.84-15.36h307.2q20.48 0 35.84 15.36t15.36 35.84zM563.2 756.224v-204.8h-102.4v204.8h102.4z" horiz-adv-x="819" />
<glyph unicode="&#x1f4c1;" d="M951.296 613.888v-402.432q0-52.224-37.888-90.112t-90.112-37.888h-695.296q-52.224 0-90.112 37.888t-37.888 90.112v548.864q0 52.224 37.888 90.112t90.112 37.888h183.296q52.224 0 90.112-37.888t37.888-90.112v-18.432h384q52.224 0 90.112-37.888t37.888-90.112z" horiz-adv-x="950" />
<glyph unicode="&#x1f4c2;" d="M1074.176 417.28q0-18.432-18.432-37.888l-191.488-226.304q-24.576-28.672-68.608-49.152t-82.944-20.48h-621.568q-19.456 0-33.792 7.168t-15.36 24.576q0 17.408 17.408 37.888l192.512 226.304q24.576 28.672 68.608 49.152t81.92 20.48h621.568q19.456 0 34.816-7.168t15.36-24.576zM877.568 613.888v-92.16h-475.136q-54.272 0-112.64-26.624t-94.208-68.608l-192.512-226.304-2.048-3.072q0 2.048-1.024 7.168t0 7.168v548.864q0 52.224 37.888 90.112t90.112 37.888h183.296q52.224 0 90.112-37.888t37.888-90.112v-18.432h310.272q52.224 0 90.112-37.888t37.888-90.112z" horiz-adv-x="1097" />
<glyph unicode="&#x1f4c4;" d="M72.704 83.456h585.728v438.272h-237.568q-23.552 0-38.912 16.384t-16.384 38.912v237.568h-292.864v-731.136zM439.296 595.456h214.016q-5.12 16.384-12.288 23.552l-179.2 178.176q-6.144 7.168-22.528 13.312v-215.040zM731.136 577.024v-512q0-22.528-15.36-38.912t-38.912-16.384h-621.568q-23.552 0-38.912 16.384t-16.384 38.912v768q0 22.528 16.384 38.912t38.912 16.384h365.568q22.528 0 50.176-12.288t43.008-26.624l178.176-179.2q16.384-15.36 27.648-43.008t11.264-50.176z" horiz-adv-x="731" />
<glyph unicode="&#x1f4ca;" d="M533.504 848.384v-640h-212.992v640q0 45.056 30.72 75.776t74.752 31.744q45.056 0 76.8-31.744t30.72-75.776zM799.744 636.416v-428.032h-212.992v428.032q0 43.008 30.72 74.752t76.8 30.72q43.008 0 74.752-30.72t30.72-74.752zM266.24 475.648v-267.264h-211.968v267.264q0 44.032 30.72 74.752t74.752 31.744 75.776-31.744 30.72-74.752zM799.744 48.64q22.528 0 37.888-15.36t16.384-37.888-16.384-36.864-37.888-16.384h-745.472q-22.528 0-37.888 16.384t-16.384 36.864 16.384 37.888 37.888 15.36h745.472z" horiz-adv-x="854" />
<glyph unicode="&#x1f50d;" d="M790.528 170.496q30.72-34.816 6.144-63.488l-47.104-47.104q-36.864-32.768-69.632 0l-194.56 194.56q-75.776-43.008-159.744-43.008-131.072 0-228.352 97.28t-97.28 228.352 92.16 224.256 223.232 93.184 229.376-97.28 98.304-228.352q0-90.112-47.104-165.888zM96.256 537.088q0-90.112 69.632-159.744t159.744-69.632 154.624 64.512 64.512 156.672q0 90.112-69.632 158.72t-159.744 68.608-154.624-64.512-64.512-154.624z" horiz-adv-x="808" />
<glyph unicode="&#x1f517;" d="M831.488 265.728q0 23.552-15.36 38.912l-118.784 118.784q-16.384 16.384-38.912 16.384-24.576 0-40.96-18.432 1.024-1.024 10.24-10.24t12.288-12.288 9.216-11.264 7.168-14.336 2.048-15.36q0-23.552-16.384-38.912t-38.912-16.384q-8.192 0-15.36 2.048t-14.336 7.168-11.264 9.216-12.288 12.288-10.24 10.24q-19.456-17.408-19.456-40.96t16.384-38.912l117.76-118.784q15.36-15.36 38.912-15.36 22.528 0 38.912 15.36l83.968 82.944q15.36 16.384 15.36 37.888zM430.080 669.184q0 22.528-15.36 38.912l-117.76 117.76q-16.384 16.384-38.912 16.384t-38.912-15.36l-83.968-83.968q-16.384-15.36-16.384-37.888t16.384-38.912l118.784-118.784q15.36-15.36 38.912-15.36t40.96 17.408q-2.048 2.048-11.264 11.264t-12.288 12.288-8.192 10.24-7.168 14.336-2.048 16.384q0 22.528 15.36 38.912t38.912 15.36q9.216 0 16.384-2.048t14.336-7.168 10.24-8.192 12.288-12.288 11.264-11.264q18.432 17.408 18.432 41.984zM942.080 265.728q0-68.608-49.152-115.712l-83.968-82.944q-47.104-48.128-115.712-48.128-69.632 0-116.736 49.152l-117.76 117.76q-47.104 48.128-47.104 116.736 0 69.632 50.176 118.784l-50.176 50.176q-49.152-50.176-118.784-50.176-68.608 0-116.736 48.128l-118.784 118.784q-48.128 48.128-48.128 116.736t48.128 115.712l83.968 83.968q48.128 47.104 116.736 47.104t116.736-48.128l116.736-118.784q48.128-47.104 48.128-115.712 0-70.656-50.176-119.808l50.176-50.176q49.152 50.176 118.784 50.176 68.608 0 116.736-48.128l118.784-118.784q48.128-48.128 48.128-116.736z" horiz-adv-x="950" />
<glyph unicode="&#x1f527;" d="M973.824 562.688c14.336-13.312 14.336-35.84 0-51.2l-68.608-69.632c-14.336-14.336-35.84-14.336-51.2 0l-15.36 16.384c-11.264 10.24-16.384 29.696-10.24 37.888 11.264 8.192 7.168 30.72-14.336 51.2-30.72 32.768-70.656 33.792-86.016 17.408-6.144-5.12-26.624-27.648-26.624-27.648l-94.208 94.208 15.36 15.36s3.072 3.072 11.264 12.288c29.696 29.696-1.024 62.464-1.024 62.464-83.968 81.92-199.68 80.896-199.68 80.896l-2.048 29.696c234.496 60.416 322.56-41.984 355.328-74.752l67.584-67.584c16.384-16.384 0-63.488 24.576-91.136 11.264-11.264 26.624-16.384 37.888-16.384 13.312 11.264 33.792 8.192 44.032-4.096zM558.080 390.656l225.28-202.752c31.744-31.744 30.72-82.944-1.024-116.736-33.792-31.744-84.992-31.744-116.736 2.048l-205.824 217.088-192.512-231.424c-17.408-19.456-49.152-19.456-68.608 0l-50.176 51.2c-19.456 17.408-19.456 50.176 0 68.608l220.16 204.8-106.496 102.4c-33.792 33.792-54.272 44.032-82.944 34.816-27.648-10.24-67.584-10.24-104.448 14.336-79.872 51.2-74.752 147.456-74.752 147.456l6.144 10.24s71.68-46.080 80.896-51.2c11.264-9.216 51.2-27.648 87.040 27.648 36.864 55.296 6.144 90.112-4.096 96.256-8.192 5.12-79.872 52.224-79.872 52.224l6.144 10.24s82.944 41.984 160.768-4.096c0-2.048 19.456-13.312 27.648-20.48 49.152-44.032 49.152-94.208 40.96-135.168-8.192-36.864 0-50.176 28.672-81.92l106.496-106.496 126.976 129.024 92.16-94.208zM753.664 99.84c17.408 15.36 17.408 45.056 0 61.44s-43.008 16.384-61.44 0c-15.36-16.384-15.36-45.056 0-60.416 18.432-16.384 45.056-19.456 61.44-1.024z" horiz-adv-x="974" />
<glyph unicode="&#x1f680;" d="M556.032 332.288q6.144-51.2 8.192-82.944t-8.192-60.416-13.312-40.96-35.84-32.768-46.080-26.624-71.68-31.744-87.040-37.888q-32.768-12.288-46.080 4.096t-3.072 45.056l40.96 112.64-133.12 135.168-108.544-40.96q-28.672-12.288-44.032 2.048t-3.072 47.104q12.288 30.72 31.744 80.896t27.648 66.56 22.528 46.080 25.6 36.864 29.696 20.48 41.984 13.312h53.248t72.704-6.144q10.24 14.336 29.696 39.936t78.848 87.040 120.832 106.496 148.48 76.8 168.96 19.456q8.192 0 14.336-6.144 4.096-4.096 6.144-14.336 10.24-83.968-18.432-172.032t-77.824-154.624-100.352-120.832-88.064-82.944zM607.232 635.392q22.528-22.528 55.296-22.528t55.296 22.528q22.528 24.576 22.528 57.344t-22.528 57.344q-22.528 22.528-55.296 22.528t-55.296-22.528q-22.528-24.576-22.528-57.344t22.528-57.344z" horiz-adv-x="881" />
</font>
</defs>
</svg>
